<?xml version="1.0" standalone="no"?>
<!DOCTYPE svg PUBLIC "-//W3C//DTD SVG 20010904//EN"
 "http://www.w3.org/TR/2001/REC-SVG-20010904/DTD/svg10.dtd">
<svg version="1.0" xmlns="http://www.w3.org/2000/svg"
 width="1000.000000pt" height="168.000000pt" viewBox="0 0 1000.000000 168.000000"
 preserveAspectRatio="xMidYMid meet">

<g transform="translate(0.000000,168.000000) scale(0.100000,-0.100000)"
fill="#000000" stroke="none">
<path d="M851 1492 c-228 -389 -681 -1171 -681 -1176 0 -3 57 -6 128 -6 l127
0 470 361 c259 198 473 364 478 368 6 6 -373 583 -406 618 -9 9 -36 -29 -116
-165z"/>
<path d="M5614 1420 c-67 -27 -87 -129 -35 -181 24 -23 38 -29 74 -29 55 0 92
27 108 79 26 87 -62 165 -147 131z"/>
<path d="M5 1294 c3 -22 21 -223 40 -449 20 -225 37 -413 38 -417 3 -9 339
570 341 587 0 7 -73 66 -164 130 -91 65 -187 133 -213 152 l-48 35 6 -38z"/>
<path d="M1276 807 l-638 -492 602 -3 c332 -1 604 -1 606 0 3 4 84 934 84 966
0 12 -3 22 -7 21 -5 0 -295 -222 -647 -492z"/>
<path d="M4008 1131 c-81 -27 -136 -61 -195 -123 -83 -89 -123 -191 -123 -318
0 -313 283 -535 572 -448 23 7 59 31 84 56 l44 44 0 -41 0 -41 125 0 125 0 0
430 0 430 -125 0 -125 0 0 -42 0 -42 -32 36 c-53 57 -91 71 -198 75 -72 2
-109 -1 -152 -16z m280 -254 c49 -32 93 -103 99 -160 15 -130 -93 -247 -228
-247 -54 0 -139 48 -173 97 -35 50 -46 137 -26 198 16 49 66 104 115 127 60
28 159 21 213 -15z"/>
<path d="M6336 1135 c-21 -7 -55 -30 -75 -49 -20 -20 -40 -36 -44 -36 -4 0 -7
16 -7 35 l0 35 -115 0 -115 0 0 -430 0 -430 125 0 125 0 0 258 c0 225 2 261
18 292 21 42 89 80 144 80 l38 0 0 130 0 130 -27 0 c-16 -1 -45 -7 -67 -15z"/>
<path d="M2375 1098 c3 -13 61 -205 129 -428 l122 -405 122 -3 121 -3 10 38
c5 21 33 128 61 238 28 110 56 217 61 239 6 21 13 36 16 33 2 -3 37 -126 77
-274 l72 -268 120 -3 119 -2 129 417 c71 230 131 424 134 431 3 9 -27 12 -130
12 l-133 0 -59 -247 c-33 -137 -63 -255 -67 -263 -10 -19 -4 -36 -79 245 -34
127 -63 238 -66 248 -5 15 -19 17 -114 17 -95 0 -109 -2 -114 -17 -3 -10 -28
-103 -56 -208 -73 -272 -81 -298 -87 -292 -3 4 -33 120 -67 259 l-61 253 -133
3 -133 3 6 -23z"/>
<path d="M4770 1025 l0 -95 181 -2 180 -3 -180 -243 -181 -243 0 -89 0 -90
320 0 320 0 0 95 0 95 -169 2 -169 3 169 235 169 235 0 98 0 97 -320 0 -320 0
0 -95z"/>
<path d="M5530 690 l0 -430 125 0 125 0 0 430 0 430 -125 0 -125 0 0 -430z"/>
<path d="M6496 1093 c10 -16 72 -102 138 -193 66 -91 120 -172 120 -180 0 -9
-70 -113 -157 -232 -86 -118 -157 -218 -157 -222 0 -4 71 -5 157 -4 l157 3 80
127 c45 70 83 127 86 128 3 0 43 -59 88 -130 l84 -130 155 0 c127 0 154 2 150
14 -3 7 -76 109 -162 226 -90 122 -154 218 -151 226 3 7 66 97 141 199 74 101
135 187 135 190 0 3 -68 4 -152 3 l-151 -3 -66 -107 c-36 -59 -68 -107 -71
-107 -3 0 -34 49 -70 109 l-65 109 -154 1 -153 0 18 -27z"/>
<path d="M8737 1004 c-4 -4 -7 -27 -7 -51 l0 -43 70 0 70 0 2 -212 3 -213 58
-3 57 -3 0 216 0 215 71 0 70 0 -3 48 -3 47 -191 3 c-104 1 -193 -1 -197 -4z"/>
<path d="M7890 898 c0 -57 3 -174 7 -260 l6 -158 121 0 c198 1 257 38 258 158
0 48 -22 88 -56 104 l-24 10 32 28 c28 26 31 34 31 90 0 55 -3 64 -28 85 -40
35 -88 45 -224 45 l-123 0 0 -102z m248 -10 c7 -7 12 -24 12 -38 0 -39 -18
-50 -82 -50 l-58 0 0 50 0 50 58 0 c32 0 63 -5 70 -12z m12 -208 c25 -25 25
-51 1 -81 -14 -18 -31 -23 -80 -27 l-61 -4 0 66 0 66 60 0 c47 0 64 -4 80 -20z"/>
<path d="M8380 740 l0 -260 150 0 150 0 0 45 0 44 -92 3 -93 3 -3 63 -3 62 91
0 90 0 0 50 0 50 -91 0 -90 0 3 53 3 52 93 3 92 3 0 44 0 45 -150 0 -150 0 0
-260z"/>
<path d="M9228 747 c-49 -139 -88 -259 -88 -266 0 -9 8 -11 23 -7 12 3 39 6
59 6 37 0 37 1 54 60 l17 60 92 0 93 0 19 -57 20 -58 57 -5 c32 -3 59 -4 60
-3 2 2 -38 120 -88 263 l-91 260 -70 0 -70 0 -87 -253z m196 52 c14 -48 26
-90 26 -93 0 -3 -28 -6 -61 -6 -54 0 -61 2 -56 18 2 9 15 54 28 99 13 45 27
79 30 75 4 -4 19 -46 33 -93z"/>
<path d="M80 105 l0 -85 885 0 885 0 0 85 0 85 -885 0 -885 0 0 -85z"/>
</g>
</svg>
